<svg xmlns="http://www.w3.org/2000/svg" viewBox="0 0 32 32" fill="white" width="32px" height="32px">
    <path d="M16 2l-2 2 2 2 2-2-2-2zm0 4l1 1v3l-2-2v-2h1zm0 4v1l1 1-1 1-1-1v-1h1zm4 4l-2-2v1h-2v1h2v1l2-2zM12 8H4v2h8zm16 0v2h-8V8h8zm4-4v2h-2V4h2zM0 4h2v2H0V4zm2 6H0V8h2zm30 2v2h-2v-2h2zm-2-2V8h2v2h-2zm-6 4h2v2h-2v-2zm4 2h2v2h-2v-2zm-2 4h2v2h-2v-2zm4 2h2v2h-2v-2zM2 16h8v2H2zm24 0h6v2h-6zm-2 4h2v2h-2v-2zm4 2h2v2h-2v-2zm-2 4h2v2h-2v-2zm-6 6h2v2h-2v-2zm-4-6v2h2v-2h-2zm2-6v2h-2v-2h2zm-4-8v2H8v-2h8zm-2-2V8h-2v2h2zm4-6V4h-2v2h2z"/>
</svg>
