<svg xmlns="http://www.w3.org/2000/svg" viewBox="0 0 24 24" fill="white" width="24px" height="24px">
    <path d="M12 2a1 1 0 0 1 .993.883L13 3v2.022l1.276-.637a1 1 0 0 1 1.057 1.686L13 7.602v1.83l3.657-1.828 1.275-.637a1 1 0 0 1 1.057 1.686L14 10.73V12h2.269l2.462-1.23 1.275-.638a1 1 0 0 1 1.057 1.686l-1.276.637L16.27 12H19a1 1 0 0 1 .117 1.993L19 14h-2.022l1.276.637a1 1 0 0 1-1.057 1.686L15 14.598v1.83l3.657 1.828 1.275.637a1 1 0 0 1-1.057 1.686L15 19.73V22a1 1 0 0 1-1.993.117L13 22v-2.022l-1.276.637a1 1 0 0 1-1.057-1.686L11 16.398v-1.83l-3.657 1.828-1.275.637a1 1 0 0 1-1.057-1.686L9 14.27V14H6.731l-2.462 1.23-1.275.638a1 1 0 0 1-1.057-1.686l1.276-.637L4.73 14H3a1 1 0 0 1-.117-1.993L3 12h2.022l-1.276-.637a1 1 0 0 1 1.057-1.686L9 11.602v-1.83L5.343 7.943l-1.275-.637a1 1 0 0 1 1.057-1.686L9 8.27V6h-.002l-1.276-.637a1 1 0 0 1 1.057-1.686L11 5.398V3a1 1 0 0 1 1-1zm1 12h-2v2h2v-2zm0-4h-2v2h2V10z"/>
</svg>
